<svg width="136" height="24" viewBox="0 0 136 24" fill="none" xmlns="http://www.w3.org/2000/svg">
<g clip-path="url(#clip0_2601_29068)">
<path d="M37.3201 16.638H33.4021C32.8381 16.638 32.4301 16.512 32.1901 16.26C31.9501 16.008 31.8301 15.6 31.8301 15.048V5.41202C31.8301 4.84802 31.9501 4.44002 32.2021 4.19402C32.4541 3.94802 32.8501 3.82202 33.4081 3.82202H37.5601C38.1721 3.82202 38.7001 3.85802 39.1501 3.93602C39.6001 4.01402 40.0021 4.15802 40.3561 4.37402C40.6621 4.55402 40.9261 4.78202 41.1601 5.05802C41.3941 5.33402 41.5741 5.64002 41.6941 5.97602C41.8141 6.31202 41.8801 6.66602 41.8801 7.03802C41.8801 8.32202 41.2381 9.25802 39.9541 9.85202C41.6401 10.386 42.4801 11.43 42.4801 12.984C42.4801 13.704 42.2941 14.346 41.9281 14.922C41.5621 15.498 41.0641 15.918 40.4401 16.194C40.0501 16.356 39.6001 16.47 39.0961 16.542C38.5921 16.614 37.9981 16.644 37.3201 16.644V16.638ZM34.4281 5.76602V9.07802H36.8041C37.4521 9.07802 37.9501 9.01802 38.3041 8.89202C38.6581 8.76602 38.9281 8.53802 39.1141 8.19002C39.2581 7.94402 39.3301 7.67402 39.3301 7.36802C39.3301 6.72002 39.1021 6.28802 38.6401 6.07802C38.1781 5.86802 37.4761 5.76002 36.5341 5.76002H34.4281V5.76602ZM37.1281 10.944H34.4281V14.688H37.2181C38.9701 14.688 39.8521 14.058 39.8521 12.792C39.8521 12.144 39.6241 11.676 39.1681 11.382C38.7121 11.088 38.0341 10.944 37.1281 10.944Z" fill="white"/>
<path d="M45.768 6.04201C45.438 6.04201 45.15 5.94001 44.916 5.73601C44.682 5.53201 44.562 5.24401 44.562 4.87201C44.562 4.53601 44.682 4.25401 44.922 4.03801C45.162 3.82201 45.444 3.70801 45.768 3.70801C46.092 3.70801 46.35 3.81001 46.59 4.00801C46.83 4.20601 46.95 4.49401 46.95 4.87201C46.95 5.25001 46.836 5.52601 46.602 5.73601C46.368 5.94601 46.092 6.04801 45.774 6.04801L45.768 6.04201ZM46.95 8.50801V15.408C46.95 15.888 46.836 16.248 46.608 16.494C46.38 16.74 46.092 16.86 45.744 16.86C45.396 16.86 45.108 16.734 44.892 16.482C44.676 16.23 44.568 15.87 44.568 15.408V8.58001C44.568 8.10601 44.676 7.75201 44.892 7.51201C45.108 7.27201 45.396 7.15201 45.744 7.15201C46.092 7.15201 46.38 7.27201 46.608 7.51201C46.836 7.75201 46.95 8.08201 46.95 8.50801Z" fill="white"/>
<path d="M58.2001 8.898V15.834C58.2001 16.626 58.1161 17.31 57.9481 17.88C57.7801 18.45 57.5101 18.924 57.1321 19.296C56.7541 19.668 56.2681 19.944 55.6681 20.124C55.0681 20.304 54.3181 20.394 53.4181 20.394C52.5961 20.394 51.8641 20.28 51.2161 20.046C50.5681 19.812 50.0701 19.518 49.7221 19.152C49.3741 18.786 49.2001 18.414 49.2001 18.03C49.2001 17.736 49.3021 17.502 49.5001 17.316C49.6981 17.13 49.9381 17.04 50.2201 17.04C50.5681 17.04 50.8741 17.196 51.1381 17.502C51.2641 17.658 51.3961 17.82 51.5341 17.976C51.6721 18.132 51.8221 18.276 51.9901 18.39C52.1581 18.504 52.3561 18.588 52.5901 18.642C52.8241 18.696 53.0941 18.726 53.3941 18.726C54.0121 18.726 54.4921 18.642 54.8341 18.468C55.1761 18.294 55.4161 18.054 55.5541 17.748C55.6921 17.442 55.7701 17.106 55.7941 16.758C55.8181 16.41 55.8361 15.84 55.8481 15.06C55.4821 15.576 55.0561 15.966 54.5761 16.23C54.0961 16.494 53.5261 16.632 52.8601 16.632C52.0621 16.632 51.3601 16.428 50.7661 16.02C50.1721 15.612 49.7101 15.042 49.3921 14.304C49.0741 13.566 48.9121 12.72 48.9121 11.76C48.9121 11.04 49.0081 10.398 49.2061 9.816C49.4041 9.234 49.6801 8.754 50.0401 8.358C50.4001 7.962 50.8201 7.662 51.2881 7.464C51.7561 7.266 52.2781 7.164 52.8421 7.164C53.5201 7.164 54.1021 7.296 54.6001 7.554C55.0981 7.812 55.5541 8.22 55.9801 8.772V8.448C55.9801 8.034 56.0821 7.716 56.2861 7.488C56.4901 7.26 56.7541 7.146 57.0721 7.146C57.5341 7.146 57.8401 7.296 57.9901 7.596C58.1401 7.896 58.2181 8.328 58.2181 8.892L58.2001 8.898ZM51.2821 11.922C51.2821 12.888 51.4921 13.62 51.9121 14.118C52.3321 14.616 52.8841 14.862 53.5561 14.862C53.9521 14.862 54.3241 14.754 54.6781 14.544C55.0321 14.334 55.3201 14.01 55.5421 13.584C55.7641 13.158 55.8721 12.636 55.8721 12.024C55.8721 11.052 55.6561 10.29 55.2301 9.75C54.8041 9.21 54.2401 8.934 53.5381 8.934C52.8361 8.934 52.3081 9.192 51.8941 9.714C51.4801 10.236 51.2761 10.968 51.2761 11.928L51.2821 11.922Z" fill="white"/>
<path d="M62.3882 3.81606H65.7722C66.6542 3.81606 67.4102 3.90006 68.0402 4.06206C68.6702 4.22406 69.2402 4.53006 69.7562 4.98006C71.0942 6.12006 71.7602 7.86006 71.7602 10.1941C71.7602 10.9621 71.6942 11.6641 71.5562 12.3001C71.4182 12.9361 71.2142 13.5061 70.9382 14.0161C70.6622 14.5261 70.3022 14.9821 69.8642 15.3841C69.5222 15.6961 69.1442 15.9421 68.7362 16.1281C68.3282 16.3141 67.8902 16.4461 67.4162 16.5241C66.9422 16.6021 66.4202 16.6381 65.8322 16.6381H62.4482C61.9742 16.6381 61.6202 16.5661 61.3802 16.4221C61.1402 16.2781 60.9842 16.0801 60.9122 15.8161C60.8402 15.5521 60.8042 15.2221 60.8042 14.8081V5.40606C60.8042 4.84806 60.9302 4.44006 61.1822 4.18806C61.4342 3.93606 61.8362 3.81006 62.4002 3.81006L62.3882 3.81606ZM63.3962 5.87406V14.5741H65.3642C65.7962 14.5741 66.1322 14.5621 66.3782 14.5381C66.6242 14.5141 66.8762 14.4541 67.1402 14.3641C67.4042 14.2741 67.6322 14.1421 67.8242 13.9681C68.6942 13.2361 69.1262 11.9701 69.1262 10.1701C69.1262 8.90406 68.9342 7.95606 68.5502 7.32606C68.1662 6.69606 67.6982 6.29406 67.1402 6.12606C66.5822 5.95806 65.9042 5.86806 65.1122 5.86806H63.3962V5.87406Z" fill="white"/>
<path d="M80.5319 12.5881H75.8639C75.8639 13.1281 75.9779 13.6081 76.1879 14.0221C76.3979 14.4361 76.6859 14.7481 77.0339 14.9581C77.3819 15.1681 77.7779 15.2701 78.2039 15.2701C78.4919 15.2701 78.7499 15.2341 78.9839 15.1681C79.2179 15.1021 79.4519 14.9941 79.6739 14.8561C79.8959 14.7181 80.0999 14.5621 80.2859 14.3941C80.4719 14.2261 80.7119 14.0101 81.0119 13.7281C81.1319 13.6261 81.3119 13.5721 81.5339 13.5721C81.7799 13.5721 81.9779 13.6381 82.1279 13.7761C82.2779 13.9141 82.3559 14.1001 82.3559 14.3461C82.3559 14.5621 82.2719 14.8141 82.1039 15.1021C81.9359 15.3901 81.6779 15.6661 81.3359 15.9301C80.9939 16.1941 80.5679 16.4161 80.0519 16.5901C79.5359 16.7641 78.9419 16.8541 78.2759 16.8541C76.7399 16.8541 75.5519 16.4161 74.6999 15.5401C73.8479 14.6641 73.4219 13.4761 73.4219 11.9821C73.4219 11.2741 73.5239 10.6201 73.7339 10.0201C73.9439 9.42005 74.2499 8.89805 74.6519 8.46605C75.0539 8.03405 75.5519 7.70405 76.1399 7.47605C76.7279 7.24805 77.3819 7.12805 78.0959 7.12805C79.0259 7.12805 79.8299 7.32605 80.4959 7.71605C81.1619 8.10605 81.6659 8.61605 81.9959 9.24005C82.3259 9.86405 82.4939 10.5001 82.4939 11.1481C82.4939 11.7481 82.3199 12.1381 81.9779 12.3181C81.6359 12.4981 81.1499 12.5821 80.5259 12.5821L80.5319 12.5881ZM75.8639 11.2321H80.1899C80.1299 10.4161 79.9079 9.80405 79.5299 9.40205C79.1519 9.00005 78.6479 8.79605 78.0239 8.79605C77.3999 8.79605 76.9379 9.00005 76.5599 9.41405C76.1819 9.82805 75.9479 10.4341 75.8639 11.2381V11.2321Z" fill="white"/>
<path d="M85.7519 8.64L87.6839 14.064L89.7659 8.406C89.9279 7.95 90.0899 7.632 90.2459 7.44C90.4019 7.248 90.6419 7.158 90.9659 7.158C91.2719 7.158 91.5239 7.26 91.7399 7.464C91.9559 7.668 92.0579 7.902 92.0579 8.172C92.0579 8.274 92.0399 8.4 91.9979 8.538C91.9559 8.676 91.9139 8.808 91.8659 8.934C91.8179 9.06 91.7639 9.198 91.6979 9.354L89.4059 15.036C89.3399 15.198 89.2559 15.408 89.1539 15.654C89.0519 15.9 88.9379 16.116 88.8119 16.296C88.6859 16.476 88.5299 16.614 88.3499 16.71C88.1699 16.806 87.9419 16.86 87.6839 16.86C87.3479 16.86 87.0719 16.782 86.8739 16.626C86.6759 16.47 86.5259 16.302 86.4299 16.116C86.3339 15.93 86.1719 15.57 85.9439 15.03L83.6699 9.408C83.6159 9.27 83.5619 9.126 83.5079 8.988C83.4539 8.85 83.4059 8.706 83.3699 8.562C83.3339 8.418 83.3159 8.292 83.3159 8.184C83.3159 8.022 83.3639 7.86 83.4659 7.698C83.5679 7.536 83.6999 7.404 83.8799 7.302C84.0599 7.2 84.2459 7.146 84.4499 7.146C84.8459 7.146 85.1159 7.26 85.2659 7.488C85.4159 7.716 85.5779 8.1 85.7639 8.634L85.7519 8.64Z" fill="white"/>
<path d="M103.686 12.792C103.686 13.566 103.482 14.262 103.086 14.88C102.69 15.498 102.102 15.984 101.334 16.332C100.566 16.68 99.654 16.854 98.598 16.854C97.332 16.854 96.288 16.614 95.466 16.134C94.884 15.792 94.41 15.33 94.044 14.754C93.678 14.178 93.498 13.62 93.498 13.08C93.498 12.768 93.606 12.498 93.822 12.27C94.038 12.042 94.32 11.934 94.656 11.934C94.932 11.934 95.16 12.024 95.352 12.198C95.544 12.372 95.706 12.63 95.838 12.978C96 13.386 96.174 13.728 96.366 14.004C96.558 14.28 96.822 14.502 97.17 14.682C97.518 14.862 97.968 14.946 98.5261 14.946C99.2941 14.946 99.918 14.766 100.398 14.406C100.878 14.046 101.118 13.602 101.118 13.062C101.118 12.636 100.986 12.288 100.728 12.024C100.47 11.76 100.134 11.556 99.72 11.418C99.306 11.28 98.76 11.13 98.07 10.974C97.146 10.758 96.378 10.506 95.754 10.218C95.13 9.93001 94.638 9.53401 94.278 9.03601C93.918 8.53801 93.732 7.92001 93.732 7.17601C93.732 6.43201 93.924 5.84401 94.308 5.29801C94.692 4.75201 95.25 4.32601 95.976 4.03201C96.702 3.73801 97.56 3.58801 98.55 3.58801C99.336 3.58801 100.014 3.68401 100.59 3.88201C101.166 4.08001 101.64 4.33801 102.024 4.66201C102.408 4.98601 102.678 5.32801 102.852 5.68201C103.026 6.03601 103.116 6.38401 103.116 6.72001C103.116 7.03201 103.008 7.30801 102.786 7.55401C102.564 7.80001 102.294 7.92601 101.97 7.92601C101.67 7.92601 101.448 7.85401 101.292 7.70401C101.136 7.55401 100.974 7.31401 100.788 6.97201C100.554 6.48601 100.272 6.10801 99.948 5.83801C99.624 5.56801 99.0961 5.43001 98.376 5.43001C97.704 5.43001 97.164 5.58001 96.75 5.87401C96.336 6.16801 96.132 6.52201 96.132 6.93601C96.132 7.19401 96.2041 7.41601 96.3421 7.60201C96.4801 7.78801 96.672 7.95001 96.918 8.08201C97.164 8.21401 97.41 8.32201 97.662 8.39401C97.914 8.46601 98.328 8.58001 98.904 8.72401C99.624 8.89201 100.278 9.07801 100.866 9.28201C101.454 9.48601 101.952 9.73201 102.36 10.026C102.768 10.32 103.092 10.686 103.32 11.13C103.548 11.574 103.668 12.12 103.668 12.768L103.686 12.792Z" fill="white"/>
<path d="M114.66 12.006C114.66 12.72 114.552 13.374 114.33 13.974C114.108 14.574 113.79 15.09 113.37 15.522C112.95 15.954 112.446 16.284 111.864 16.512C111.282 16.74 110.628 16.86 109.896 16.86C109.164 16.86 108.522 16.746 107.946 16.512C107.37 16.278 106.866 15.948 106.446 15.51C106.026 15.072 105.702 14.562 105.486 13.968C105.27 13.374 105.162 12.72 105.162 12.006C105.162 11.292 105.27 10.62 105.492 10.02C105.714 9.42 106.032 8.904 106.446 8.478C106.86 8.052 107.364 7.722 107.952 7.494C108.54 7.266 109.188 7.146 109.902 7.146C110.616 7.146 111.282 7.26 111.87 7.494C112.458 7.728 112.962 8.058 113.382 8.49C113.802 8.922 114.12 9.432 114.336 10.032C114.552 10.632 114.666 11.28 114.666 12L114.66 12.006ZM112.266 12.006C112.266 11.034 112.05 10.272 111.624 9.732C111.198 9.192 110.622 8.916 109.896 8.916C109.428 8.916 109.02 9.036 108.66 9.276C108.3 9.516 108.03 9.876 107.838 10.35C107.646 10.824 107.55 11.376 107.55 12C107.55 12.624 107.646 13.17 107.832 13.638C108.018 14.106 108.294 14.46 108.648 14.712C109.002 14.964 109.416 15.084 109.896 15.084C110.616 15.084 111.192 14.814 111.624 14.268C112.056 13.722 112.266 12.972 112.266 12.006Z" fill="white"/>
<path d="M125.478 12.006C125.478 12.72 125.37 13.374 125.148 13.974C124.926 14.574 124.608 15.09 124.188 15.522C123.768 15.954 123.264 16.284 122.682 16.512C122.1 16.74 121.446 16.86 120.714 16.86C119.982 16.86 119.34 16.746 118.764 16.512C118.188 16.278 117.684 15.948 117.264 15.51C116.844 15.072 116.52 14.562 116.304 13.968C116.088 13.374 115.98 12.72 115.98 12.006C115.98 11.292 116.088 10.62 116.31 10.02C116.532 9.42 116.85 8.904 117.264 8.478C117.678 8.052 118.182 7.722 118.77 7.494C119.358 7.266 120.006 7.146 120.72 7.146C121.434 7.146 122.1 7.26 122.688 7.494C123.276 7.728 123.78 8.058 124.2 8.49C124.62 8.922 124.938 9.432 125.154 10.032C125.37 10.632 125.484 11.28 125.484 12L125.478 12.006ZM123.084 12.006C123.084 11.034 122.868 10.272 122.442 9.732C122.016 9.192 121.44 8.916 120.714 8.916C120.246 8.916 119.838 9.036 119.478 9.276C119.118 9.516 118.848 9.876 118.656 10.35C118.464 10.824 118.368 11.376 118.368 12C118.368 12.624 118.464 13.17 118.65 13.638C118.836 14.106 119.112 14.46 119.466 14.712C119.82 14.964 120.234 15.084 120.714 15.084C121.434 15.084 122.01 14.814 122.442 14.268C122.874 13.722 123.084 12.972 123.084 12.006Z" fill="white"/>
<path d="M129.528 8.47201V8.76002C129.948 8.20802 130.404 7.80001 130.902 7.54201C131.4 7.28401 131.976 7.15201 132.624 7.15201C133.272 7.15201 133.818 7.29001 134.31 7.56601C134.802 7.84201 135.174 8.22601 135.42 8.73001C135.576 9.02401 135.678 9.33602 135.726 9.67202C135.774 10.008 135.798 10.44 135.798 10.968V15.408C135.798 15.888 135.69 16.248 135.468 16.494C135.246 16.74 134.964 16.86 134.616 16.86C134.268 16.86 133.974 16.734 133.752 16.482C133.53 16.23 133.422 15.87 133.422 15.408V11.43C133.422 10.644 133.314 10.038 133.092 9.62402C132.87 9.21002 132.438 9.00001 131.784 9.00001C131.358 9.00001 130.968 9.12601 130.62 9.37801C130.272 9.63001 130.014 9.97802 129.852 10.422C129.738 10.776 129.678 11.442 129.678 12.414V15.402C129.678 15.888 129.564 16.248 129.342 16.488C129.12 16.728 128.826 16.848 128.472 16.848C128.118 16.848 127.848 16.722 127.626 16.47C127.404 16.218 127.296 15.858 127.296 15.396V8.49601C127.296 8.04001 127.398 7.70401 127.596 7.47601C127.794 7.24801 128.064 7.14001 128.412 7.14001C128.622 7.14001 128.814 7.18801 128.982 7.29001C129.15 7.39201 129.288 7.53602 129.39 7.73402C129.492 7.93202 129.546 8.17202 129.546 8.46002L129.528 8.47201Z" fill="white"/>
<path d="M18.8402 15.39L18.6902 12.144C18.6902 12.144 18.6902 12.132 18.6962 12.126L23.3822 7.43996C23.3822 7.43996 23.3882 7.43396 23.3882 7.42196L23.1842 2.84996L23.1002 0.947957V0.911957C23.1002 0.911957 23.0882 0.887957 23.0762 0.887957L21.1502 0.803957H21.1442L16.5722 0.605957C16.5722 0.605957 16.5602 0.605957 16.5542 0.611957L11.8682 5.29796C11.8682 5.29796 11.8622 5.30396 11.8502 5.30396L8.60421 5.15396C8.60421 5.15396 8.59221 5.15396 8.58621 5.15996L3.93021 9.81596C3.93021 9.81596 3.92421 9.85796 3.93621 9.85796L7.49421 10.326H7.50021L13.6322 16.47H13.6382L14.1122 20.04C14.1122 20.058 14.1362 20.064 14.1542 20.046L18.8102 15.39C18.8102 15.39 18.8162 15.384 18.8162 15.372L18.8402 15.39ZM19.3202 9.20996C19.3202 9.20996 19.3022 9.21596 19.2962 9.21596L17.4242 8.59196H17.4182L16.3922 8.24396L15.9242 8.09396L15.9062 8.07596L15.4202 6.58796L15.4082 6.55196L14.7902 4.70996C14.7902 4.70996 14.7902 4.69196 14.7962 4.68596L17.0462 2.43596C17.0462 2.43596 17.0522 2.42996 17.0642 2.42996L19.4102 2.55596H19.4582H19.4642L21.3242 2.65196C21.3242 2.65196 21.3422 2.65796 21.3482 2.66396C21.3482 2.66396 21.3482 2.66796 21.3482 2.67596L21.4442 4.54796C21.4442 4.54796 21.4442 4.55996 21.4502 4.56596L21.5762 6.94796C21.5762 6.94796 21.5762 6.95996 21.5702 6.96596L19.3202 9.21596V9.20996Z" fill="#9F7AEA"/>
<path d="M18.6302 4.47001C18.3782 4.72201 17.9762 4.71601 17.7242 4.47001C17.6822 4.42801 17.6462 4.38601 17.6222 4.33201C17.4842 4.09201 17.5142 3.77401 17.7182 3.56401C17.9222 3.35401 18.2462 3.32401 18.4922 3.46201C18.5402 3.48601 18.5882 3.52201 18.6302 3.56401C18.8822 3.81601 18.8822 4.22401 18.6302 4.47001Z" fill="#9F7AEA"/>
<path d="M20.4362 6.27603C20.2262 6.48603 19.9142 6.51603 19.6742 6.37803C19.6262 6.35403 19.5782 6.31803 19.5362 6.27603C19.2842 6.02403 19.2842 5.62203 19.5362 5.37003C19.7882 5.11803 20.1962 5.11803 20.4422 5.37003C20.4842 5.41203 20.5202 5.45403 20.5442 5.50803C20.6822 5.74803 20.6462 6.06603 20.4362 6.27603Z" fill="white"/>
<path d="M7.90782 20.682L0.611816 23.532L0.689816 23.31L3.31182 16.092C3.31182 16.092 8.14182 13.824 8.14782 13.836L10.1638 15.852L7.90782 20.688V20.682Z" fill="#ED8936"/>
<path d="M7.90782 20.682L0.611816 23.532L0.689816 23.31L3.31182 16.092C3.31182 16.092 8.14182 13.824 8.14782 13.836L10.1638 15.852L7.90782 20.688V20.682Z" fill="#ED8936"/>
<path d="M2.57998 13.788L1.39798 14.346L0.737978 16.158C0.437978 15.348 0.227978 14.514 0.113978 13.662C0.113978 13.662 0.113978 13.66 0.113978 13.656C-0.378022 10.056 0.749978 6.27598 3.50998 3.51598C6.38398 0.635983 10.368 -0.474017 14.088 0.179983C14.112 0.179983 14.112 0.203983 14.094 0.221983L11.916 2.39998C11.916 2.39998 11.91 2.40598 11.904 2.39998C9.47998 2.42398 7.06198 3.36598 5.21998 5.20798C3.43198 6.99598 2.48998 9.32998 2.41798 11.676L5.68198 12.114C5.68198 12.114 5.70598 12.138 5.68798 12.156L5.37598 12.468L2.58598 13.776L2.57998 13.788Z" fill="white"/>
<path d="M19.5362 6.27603C19.2842 6.02403 19.2842 5.62203 19.5362 5.37003C19.7882 5.11803 20.1962 5.11803 20.4422 5.37003C20.6882 5.62203 20.6882 6.02403 20.4422 6.27603C20.1962 6.52803 19.7942 6.52803 19.5422 6.27603H19.5362Z" fill="#B794F4"/>
<path d="M18.8282 15.4079L14.1722 20.0639C14.1722 20.0639 14.1302 20.0699 14.1302 20.0579L13.6562 16.4939H13.6502L10.6022 13.4339C10.5962 13.4279 10.5962 13.4099 10.6022 13.3979L15.9002 8.09995C15.9002 8.09995 15.9122 8.09995 15.9242 8.09995L16.3862 8.24995L17.4122 8.59195H17.4182L19.2902 9.22195C19.2962 9.22195 19.3082 9.22195 19.3142 9.21595L21.5642 6.96595C21.5642 6.96595 21.5702 6.95995 21.5702 6.94795L21.4442 4.56595C21.4442 4.56595 21.4442 4.56595 21.4442 4.55395L21.3482 2.68195C21.3482 2.68195 21.3482 2.67595 21.3482 2.66995C21.3482 2.66995 21.3482 2.65795 21.3542 2.65195L23.0642 0.941951C23.0642 0.941951 23.1062 0.935951 23.1062 0.959951L23.1902 2.86195L23.3942 7.43395C23.3942 7.43395 23.3942 7.44595 23.3882 7.45195L18.7022 12.1379C18.7022 12.1379 18.7022 12.1499 18.6962 12.1559L18.8462 15.4019C18.8462 15.4019 18.8462 15.414 18.8402 15.42L18.8282 15.4079Z" fill="#B794F4"/>
<path d="M20.4898 20.496C17.7298 23.256 13.9498 24.384 10.3498 23.892C10.3498 23.892 10.3438 23.892 10.3378 23.892C9.76179 23.814 9.18579 23.694 8.62779 23.52C8.40579 23.454 8.18379 23.382 7.96779 23.31C7.93179 23.304 7.90779 23.292 7.88379 23.274L9.67779 22.572L10.2178 21.42L11.1238 19.488L11.5378 18.612L11.8378 18.312C11.8378 18.312 11.8798 18.306 11.8858 18.324L11.9338 18.684L12.3178 21.558V21.582H12.3418C12.9478 21.558 13.5598 21.486 14.1478 21.342C14.2738 21.318 14.3878 21.288 14.5198 21.252C14.9758 21.132 15.4258 20.97 15.8698 20.778C15.9778 20.73 16.0798 20.682 16.1818 20.634C17.1298 20.178 18.0058 19.566 18.7858 18.786C20.6338 16.938 21.5758 14.52 21.5878 12.096C21.5878 12.09 21.5878 12.084 21.5938 12.078L23.7778 9.89404C23.7778 9.89404 23.8138 9.89404 23.8198 9.91204C24.4678 13.638 23.3698 17.616 20.4898 20.496Z" fill="white"/>
<path d="M12.336 21.582H12.312V21.558C12.312 21.558 12.324 21.582 12.336 21.582Z" fill="#B794F4"/>
<path opacity="0.2" d="M23.1778 2.87394L21.4858 4.56594C21.4858 4.56594 21.4438 4.56594 21.4438 4.54794L21.3478 2.66994C21.3478 2.66994 21.3358 2.64594 21.3238 2.64594L19.4578 2.54994C19.4578 2.54994 19.4278 2.52594 19.4398 2.50794L21.1318 0.815937C21.1318 0.815937 21.1438 0.809937 21.1498 0.809937L23.0758 0.893937C23.0758 0.893937 23.0998 0.905936 23.0998 0.917936L23.1838 2.85594C23.1838 2.85594 23.1838 2.86794 23.1778 2.87394Z" fill="white"/>
<path opacity="0.2" d="M15.3721 6.58193C15.3721 6.58193 15.408 6.57593 15.414 6.58793L15.9 8.07593L15.9181 8.09393L16.386 8.24393L17.412 8.58593H17.4181C17.4181 8.58593 17.4241 8.62193 17.4181 8.62793L11.6221 14.4239C11.6221 14.4239 11.598 14.4299 11.586 14.4239L9.57005 12.4079C9.57005 12.4079 9.56405 12.3839 9.57005 12.3719L15.366 6.57593L15.3721 6.58193Z" fill="white"/>
<path d="M10.1638 15.846L7.90782 20.682L0.611816 23.532L0.689816 23.31L9.15582 14.844L10.1638 15.852V15.846Z" fill="#F6AD55"/>
</g>
<defs>
<clipPath id="clip0_2601_29068">
<rect width="135.798" height="24" fill="white"/>
</clipPath>
</defs>
</svg>
